<?xml version="1.0" encoding="UTF-8"?>
<svg width="24" height="24" version="1.1" viewBox="0 0 24 24" xml:space="preserve" xmlns="http://www.w3.org/2000/svg"><defs><style id="current-color-scheme" type="text/css">.ColorScheme-Text {
                color:#eff0f1;
            }</style><style type="text/css">
            .ColorScheme-Text {
                color:#232629;
            }
        </style></defs><g fill="#232629"><path d="m13.716 12v-2h2v2h-2zm-3.5336 0v-2h2v2h-2zm0.92091 2.9725v-2h2v2h-2zm-4.4545-2.9725v-2h2v2h-2zm1 2.9725v-2h2v2h-2zm-1 2.9725v-2h2v2h-2zm3.5336 0v-2h2v2h-2zm2.8174-0.945h4.293l-2.293 2.293 0.707 0.707 3.5-3.5-3.5-3.5-0.707 0.707 2.293 2.293h-4.293v1zm-7 2v-14h8v4h4v5h1v-6c-1.3333-1.3333-2.6667-2.6667-4-4h-10v16h9v-1h-8z" fill="#232629"/></g></svg>
